<?xml version="1.0" encoding="utf-8" standalone="no"?>
<!DOCTYPE svg PUBLIC "-//W3C//DTD SVG 1.1//EN"
  "http://www.w3.org/Graphics/SVG/1.1/DTD/svg11.dtd">
<svg xmlns:xlink="http://www.w3.org/1999/xlink" width="460.8pt" height="345.6pt" viewBox="0 0 460.8 345.6" xmlns="http://www.w3.org/2000/svg" version="1.1">
 <metadata>
  <rdf:RDF xmlns:dc="http://purl.org/dc/elements/1.1/" xmlns:cc="http://creativecommons.org/ns#" xmlns:rdf="http://www.w3.org/1999/02/22-rdf-syntax-ns#">
   <cc:Work>
    <dc:type rdf:resource="http://purl.org/dc/dcmitype/StillImage"/>
    <dc:date>2023-11-10T13:29:59.884857</dc:date>
    <dc:format>image/svg+xml</dc:format>
    <dc:creator>
     <cc:Agent>
      <dc:title>Matplotlib v3.8.0, https://matplotlib.org/</dc:title>
     </cc:Agent>
    </dc:creator>
   </cc:Work>
  </rdf:RDF>
 </metadata>
 <defs>
  <style type="text/css">*{stroke-linejoin: round; stroke-linecap: butt}</style>
 </defs>
 <g id="figure_1">
  <g id="patch_1">
   <path d="M 0 345.6 
L 460.8 345.6 
L 460.8 0 
L 0 0 
z
" style="fill: #ffffff"/>
  </g>
  <g id="axes_1">
   <g id="patch_2">
    <path d="M 57.6 307.584 
L 414.72 307.584 
L 414.72 41.472 
L 57.6 41.472 
z
" style="fill: #ffffff"/>
   </g>
   <g id="matplotlib.axis_1">
    <g id="xtick_1">
     <g id="text_1">
      <!-- (216) -->
      <g transform="translate(55.995901 338.97145) rotate(-45) scale(0.1 -0.1)">
       <defs>
        <path id="DejaVuSans-28" d="M 1984 4856 
Q 1566 4138 1362 3434 
Q 1159 2731 1159 2009 
Q 1159 1288 1364 580 
Q 1569 -128 1984 -844 
L 1484 -844 
Q 1016 -109 783 600 
Q 550 1309 550 2009 
Q 550 2706 781 3412 
Q 1013 4119 1484 4856 
L 1984 4856 
z
" transform="scale(0.015625)"/>
        <path id="DejaVuSans-32" d="M 1228 531 
L 3431 531 
L 3431 0 
L 469 0 
L 469 531 
Q 828 903 1448 1529 
Q 2069 2156 2228 2338 
Q 2531 2678 2651 2914 
Q 2772 3150 2772 3378 
Q 2772 3750 2511 3984 
Q 2250 4219 1831 4219 
Q 1534 4219 1204 4116 
Q 875 4013 500 3803 
L 500 4441 
Q 881 4594 1212 4672 
Q 1544 4750 1819 4750 
Q 2544 4750 2975 4387 
Q 3406 4025 3406 3419 
Q 3406 3131 3298 2873 
Q 3191 2616 2906 2266 
Q 2828 2175 2409 1742 
Q 1991 1309 1228 531 
z
" transform="scale(0.015625)"/>
        <path id="DejaVuSans-31" d="M 794 531 
L 1825 531 
L 1825 4091 
L 703 3866 
L 703 4441 
L 1819 4666 
L 2450 4666 
L 2450 531 
L 3481 531 
L 3481 0 
L 794 0 
L 794 531 
z
" transform="scale(0.015625)"/>
        <path id="DejaVuSans-36" d="M 2113 2584 
Q 1688 2584 1439 2293 
Q 1191 2003 1191 1497 
Q 1191 994 1439 701 
Q 1688 409 2113 409 
Q 2538 409 2786 701 
Q 3034 994 3034 1497 
Q 3034 2003 2786 2293 
Q 2538 2584 2113 2584 
z
M 3366 4563 
L 3366 3988 
Q 3128 4100 2886 4159 
Q 2644 4219 2406 4219 
Q 1781 4219 1451 3797 
Q 1122 3375 1075 2522 
Q 1259 2794 1537 2939 
Q 1816 3084 2150 3084 
Q 2853 3084 3261 2657 
Q 3669 2231 3669 1497 
Q 3669 778 3244 343 
Q 2819 -91 2113 -91 
Q 1303 -91 875 529 
Q 447 1150 447 2328 
Q 447 3434 972 4092 
Q 1497 4750 2381 4750 
Q 2619 4750 2861 4703 
Q 3103 4656 3366 4563 
z
" transform="scale(0.015625)"/>
        <path id="DejaVuSans-29" d="M 513 4856 
L 1013 4856 
Q 1481 4119 1714 3412 
Q 1947 2706 1947 2009 
Q 1947 1309 1714 600 
Q 1481 -109 1013 -844 
L 513 -844 
Q 928 -128 1133 580 
Q 1338 1288 1338 2009 
Q 1338 2731 1133 3434 
Q 928 4138 513 4856 
z
" transform="scale(0.015625)"/>
       </defs>
       <use xlink:href="#DejaVuSans-28"/>
       <use xlink:href="#DejaVuSans-32" x="39.013672"/>
       <use xlink:href="#DejaVuSans-31" x="102.636719"/>
       <use xlink:href="#DejaVuSans-36" x="166.259766"/>
       <use xlink:href="#DejaVuSans-29" x="229.882812"/>
      </g>
     </g>
    </g>
    <g id="xtick_2">
     <g id="text_2">
      <!-- (191) -->
      <g transform="translate(67.899901 338.97145) rotate(-45) scale(0.1 -0.1)">
       <defs>
        <path id="DejaVuSans-39" d="M 703 97 
L 703 672 
Q 941 559 1184 500 
Q 1428 441 1663 441 
Q 2288 441 2617 861 
Q 2947 1281 2994 2138 
Q 2813 1869 2534 1725 
Q 2256 1581 1919 1581 
Q 1219 1581 811 2004 
Q 403 2428 403 3163 
Q 403 3881 828 4315 
Q 1253 4750 1959 4750 
Q 2769 4750 3195 4129 
Q 3622 3509 3622 2328 
Q 3622 1225 3098 567 
Q 2575 -91 1691 -91 
Q 1453 -91 1209 -44 
Q 966 3 703 97 
z
M 1959 2075 
Q 2384 2075 2632 2365 
Q 2881 2656 2881 3163 
Q 2881 3666 2632 3958 
Q 2384 4250 1959 4250 
Q 1534 4250 1286 3958 
Q 1038 3666 1038 3163 
Q 1038 2656 1286 2365 
Q 1534 2075 1959 2075 
z
" transform="scale(0.015625)"/>
       </defs>
       <use xlink:href="#DejaVuSans-28"/>
       <use xlink:href="#DejaVuSans-31" x="39.013672"/>
       <use xlink:href="#DejaVuSans-39" x="102.636719"/>
       <use xlink:href="#DejaVuSans-31" x="166.259766"/>
       <use xlink:href="#DejaVuSans-29" x="229.882812"/>
      </g>
     </g>
    </g>
    <g id="xtick_3">
     <g id="text_3">
      <!-- (221) -->
      <g transform="translate(79.803901 338.97145) rotate(-45) scale(0.1 -0.1)">
       <use xlink:href="#DejaVuSans-28"/>
       <use xlink:href="#DejaVuSans-32" x="39.013672"/>
       <use xlink:href="#DejaVuSans-32" x="102.636719"/>
       <use xlink:href="#DejaVuSans-31" x="166.259766"/>
       <use xlink:href="#DejaVuSans-29" x="229.882812"/>
      </g>
     </g>
    </g>
    <g id="xtick_4">
     <g id="text_4">
      <!-- (310) -->
      <g transform="translate(91.707901 338.97145) rotate(-45) scale(0.1 -0.1)">
       <defs>
        <path id="DejaVuSans-33" d="M 2597 2516 
Q 3050 2419 3304 2112 
Q 3559 1806 3559 1356 
Q 3559 666 3084 287 
Q 2609 -91 1734 -91 
Q 1441 -91 1130 -33 
Q 819 25 488 141 
L 488 750 
Q 750 597 1062 519 
Q 1375 441 1716 441 
Q 2309 441 2620 675 
Q 2931 909 2931 1356 
Q 2931 1769 2642 2001 
Q 2353 2234 1838 2234 
L 1294 2234 
L 1294 2753 
L 1863 2753 
Q 2328 2753 2575 2939 
Q 2822 3125 2822 3475 
Q 2822 3834 2567 4026 
Q 2313 4219 1838 4219 
Q 1578 4219 1281 4162 
Q 984 4106 628 3988 
L 628 4550 
Q 988 4650 1302 4700 
Q 1616 4750 1894 4750 
Q 2613 4750 3031 4423 
Q 3450 4097 3450 3541 
Q 3450 3153 3228 2886 
Q 3006 2619 2597 2516 
z
" transform="scale(0.015625)"/>
        <path id="DejaVuSans-30" d="M 2034 4250 
Q 1547 4250 1301 3770 
Q 1056 3291 1056 2328 
Q 1056 1369 1301 889 
Q 1547 409 2034 409 
Q 2525 409 2770 889 
Q 3016 1369 3016 2328 
Q 3016 3291 2770 3770 
Q 2525 4250 2034 4250 
z
M 2034 4750 
Q 2819 4750 3233 4129 
Q 3647 3509 3647 2328 
Q 3647 1150 3233 529 
Q 2819 -91 2034 -91 
Q 1250 -91 836 529 
Q 422 1150 422 2328 
Q 422 3509 836 4129 
Q 1250 4750 2034 4750 
z
" transform="scale(0.015625)"/>
       </defs>
       <use xlink:href="#DejaVuSans-28"/>
       <use xlink:href="#DejaVuSans-33" x="39.013672"/>
       <use xlink:href="#DejaVuSans-31" x="102.636719"/>
       <use xlink:href="#DejaVuSans-30" x="166.259766"/>
       <use xlink:href="#DejaVuSans-29" x="229.882812"/>
      </g>
     </g>
    </g>
    <g id="xtick_5">
     <g id="text_5">
      <!-- (210) -->
      <g transform="translate(103.611901 338.97145) rotate(-45) scale(0.1 -0.1)">
       <use xlink:href="#DejaVuSans-28"/>
       <use xlink:href="#DejaVuSans-32" x="39.013672"/>
       <use xlink:href="#DejaVuSans-31" x="102.636719"/>
       <use xlink:href="#DejaVuSans-30" x="166.259766"/>
       <use xlink:href="#DejaVuSans-29" x="229.882812"/>
      </g>
     </g>
    </g>
    <g id="xtick_6">
     <g id="text_6">
      <!-- (186) -->
      <g transform="translate(115.515901 338.97145) rotate(-45) scale(0.1 -0.1)">
       <defs>
        <path id="DejaVuSans-38" d="M 2034 2216 
Q 1584 2216 1326 1975 
Q 1069 1734 1069 1313 
Q 1069 891 1326 650 
Q 1584 409 2034 409 
Q 2484 409 2743 651 
Q 3003 894 3003 1313 
Q 3003 1734 2745 1975 
Q 2488 2216 2034 2216 
z
M 1403 2484 
Q 997 2584 770 2862 
Q 544 3141 544 3541 
Q 544 4100 942 4425 
Q 1341 4750 2034 4750 
Q 2731 4750 3128 4425 
Q 3525 4100 3525 3541 
Q 3525 3141 3298 2862 
Q 3072 2584 2669 2484 
Q 3125 2378 3379 2068 
Q 3634 1759 3634 1313 
Q 3634 634 3220 271 
Q 2806 -91 2034 -91 
Q 1263 -91 848 271 
Q 434 634 434 1313 
Q 434 1759 690 2068 
Q 947 2378 1403 2484 
z
M 1172 3481 
Q 1172 3119 1398 2916 
Q 1625 2713 2034 2713 
Q 2441 2713 2670 2916 
Q 2900 3119 2900 3481 
Q 2900 3844 2670 4047 
Q 2441 4250 2034 4250 
Q 1625 4250 1398 4047 
Q 1172 3844 1172 3481 
z
" transform="scale(0.015625)"/>
       </defs>
       <use xlink:href="#DejaVuSans-28"/>
       <use xlink:href="#DejaVuSans-31" x="39.013672"/>
       <use xlink:href="#DejaVuSans-38" x="102.636719"/>
       <use xlink:href="#DejaVuSans-36" x="166.259766"/>
       <use xlink:href="#DejaVuSans-29" x="229.882812"/>
      </g>
     </g>
    </g>
    <g id="xtick_7">
     <g id="text_7">
      <!-- (142) -->
      <g transform="translate(127.419901 338.97145) rotate(-45) scale(0.1 -0.1)">
       <defs>
        <path id="DejaVuSans-34" d="M 2419 4116 
L 825 1625 
L 2419 1625 
L 2419 4116 
z
M 2253 4666 
L 3047 4666 
L 3047 1625 
L 3713 1625 
L 3713 1100 
L 3047 1100 
L 3047 0 
L 2419 0 
L 2419 1100 
L 313 1100 
L 313 1709 
L 2253 4666 
z
" transform="scale(0.015625)"/>
       </defs>
       <use xlink:href="#DejaVuSans-28"/>
       <use xlink:href="#DejaVuSans-31" x="39.013672"/>
       <use xlink:href="#DejaVuSans-34" x="102.636719"/>
       <use xlink:href="#DejaVuSans-32" x="166.259766"/>
       <use xlink:href="#DejaVuSans-29" x="229.882812"/>
      </g>
     </g>
    </g>
    <g id="xtick_8">
     <g id="text_8">
      <!-- (140) -->
      <g transform="translate(139.323901 338.97145) rotate(-45) scale(0.1 -0.1)">
       <use xlink:href="#DejaVuSans-28"/>
       <use xlink:href="#DejaVuSans-31" x="39.013672"/>
       <use xlink:href="#DejaVuSans-34" x="102.636719"/>
       <use xlink:href="#DejaVuSans-30" x="166.259766"/>
       <use xlink:href="#DejaVuSans-29" x="229.882812"/>
      </g>
     </g>
    </g>
    <g id="xtick_9">
     <g id="text_9">
      <!-- (1784) -->
      <g transform="translate(148.978418 343.470417) rotate(-45) scale(0.1 -0.1)">
       <defs>
        <path id="DejaVuSans-37" d="M 525 4666 
L 3525 4666 
L 3525 4397 
L 1831 0 
L 1172 0 
L 2766 4134 
L 525 4134 
L 525 4666 
z
" transform="scale(0.015625)"/>
       </defs>
       <use xlink:href="#DejaVuSans-28"/>
       <use xlink:href="#DejaVuSans-31" x="39.013672"/>
       <use xlink:href="#DejaVuSans-37" x="102.636719"/>
       <use xlink:href="#DejaVuSans-38" x="166.259766"/>
       <use xlink:href="#DejaVuSans-34" x="229.882812"/>
       <use xlink:href="#DejaVuSans-29" x="293.505859"/>
      </g>
     </g>
    </g>
    <g id="xtick_10">
     <g id="text_10">
      <!-- (219) -->
      <g transform="translate(163.131901 338.97145) rotate(-45) scale(0.1 -0.1)">
       <use xlink:href="#DejaVuSans-28"/>
       <use xlink:href="#DejaVuSans-32" x="39.013672"/>
       <use xlink:href="#DejaVuSans-31" x="102.636719"/>
       <use xlink:href="#DejaVuSans-39" x="166.259766"/>
       <use xlink:href="#DejaVuSans-29" x="229.882812"/>
      </g>
     </g>
    </g>
    <g id="xtick_11">
     <g id="text_11">
      <!-- (375) -->
      <g transform="translate(175.035901 338.97145) rotate(-45) scale(0.1 -0.1)">
       <defs>
        <path id="DejaVuSans-35" d="M 691 4666 
L 3169 4666 
L 3169 4134 
L 1269 4134 
L 1269 2991 
Q 1406 3038 1543 3061 
Q 1681 3084 1819 3084 
Q 2600 3084 3056 2656 
Q 3513 2228 3513 1497 
Q 3513 744 3044 326 
Q 2575 -91 1722 -91 
Q 1428 -91 1123 -41 
Q 819 9 494 109 
L 494 744 
Q 775 591 1075 516 
Q 1375 441 1709 441 
Q 2250 441 2565 725 
Q 2881 1009 2881 1497 
Q 2881 1984 2565 2268 
Q 2250 2553 1709 2553 
Q 1456 2553 1204 2497 
Q 953 2441 691 2322 
L 691 4666 
z
" transform="scale(0.015625)"/>
       </defs>
       <use xlink:href="#DejaVuSans-28"/>
       <use xlink:href="#DejaVuSans-33" x="39.013672"/>
       <use xlink:href="#DejaVuSans-37" x="102.636719"/>
       <use xlink:href="#DejaVuSans-35" x="166.259766"/>
       <use xlink:href="#DejaVuSans-29" x="229.882812"/>
      </g>
     </g>
    </g>
    <g id="xtick_12">
     <g id="text_12">
      <!-- (1903) -->
      <g transform="translate(184.690418 343.470417) rotate(-45) scale(0.1 -0.1)">
       <use xlink:href="#DejaVuSans-28"/>
       <use xlink:href="#DejaVuSans-31" x="39.013672"/>
       <use xlink:href="#DejaVuSans-39" x="102.636719"/>
       <use xlink:href="#DejaVuSans-30" x="166.259766"/>
       <use xlink:href="#DejaVuSans-33" x="229.882812"/>
       <use xlink:href="#DejaVuSans-29" x="293.505859"/>
      </g>
     </g>
    </g>
    <g id="xtick_13">
     <g id="text_13">
      <!-- (230) -->
      <g transform="translate(198.843901 338.97145) rotate(-45) scale(0.1 -0.1)">
       <use xlink:href="#DejaVuSans-28"/>
       <use xlink:href="#DejaVuSans-32" x="39.013672"/>
       <use xlink:href="#DejaVuSans-33" x="102.636719"/>
       <use xlink:href="#DejaVuSans-30" x="166.259766"/>
       <use xlink:href="#DejaVuSans-29" x="229.882812"/>
      </g>
     </g>
    </g>
    <g id="xtick_14">
     <g id="text_14">
      <!-- (894) -->
      <g transform="translate(210.747901 338.97145) rotate(-45) scale(0.1 -0.1)">
       <use xlink:href="#DejaVuSans-28"/>
       <use xlink:href="#DejaVuSans-38" x="39.013672"/>
       <use xlink:href="#DejaVuSans-39" x="102.636719"/>
       <use xlink:href="#DejaVuSans-34" x="166.259766"/>
       <use xlink:href="#DejaVuSans-29" x="229.882812"/>
      </g>
     </g>
    </g>
    <g id="xtick_15">
     <g id="text_15">
      <!-- (1525) -->
      <g transform="translate(220.402418 343.470417) rotate(-45) scale(0.1 -0.1)">
       <use xlink:href="#DejaVuSans-28"/>
       <use xlink:href="#DejaVuSans-31" x="39.013672"/>
       <use xlink:href="#DejaVuSans-35" x="102.636719"/>
       <use xlink:href="#DejaVuSans-32" x="166.259766"/>
       <use xlink:href="#DejaVuSans-35" x="229.882812"/>
       <use xlink:href="#DejaVuSans-29" x="293.505859"/>
      </g>
     </g>
    </g>
    <g id="xtick_16">
     <g id="text_16">
      <!-- (192) -->
      <g transform="translate(234.555901 338.97145) rotate(-45) scale(0.1 -0.1)">
       <use xlink:href="#DejaVuSans-28"/>
       <use xlink:href="#DejaVuSans-31" x="39.013672"/>
       <use xlink:href="#DejaVuSans-39" x="102.636719"/>
       <use xlink:href="#DejaVuSans-32" x="166.259766"/>
       <use xlink:href="#DejaVuSans-29" x="229.882812"/>
      </g>
     </g>
    </g>
    <g id="xtick_17">
     <g id="text_17">
      <!-- (178) -->
      <g transform="translate(246.459901 338.97145) rotate(-45) scale(0.1 -0.1)">
       <use xlink:href="#DejaVuSans-28"/>
       <use xlink:href="#DejaVuSans-31" x="39.013672"/>
       <use xlink:href="#DejaVuSans-37" x="102.636719"/>
       <use xlink:href="#DejaVuSans-38" x="166.259766"/>
       <use xlink:href="#DejaVuSans-29" x="229.882812"/>
      </g>
     </g>
    </g>
    <g id="xtick_18">
     <g id="text_18">
      <!-- (162) -->
      <g transform="translate(258.363901 338.97145) rotate(-45) scale(0.1 -0.1)">
       <use xlink:href="#DejaVuSans-28"/>
       <use xlink:href="#DejaVuSans-31" x="39.013672"/>
       <use xlink:href="#DejaVuSans-36" x="102.636719"/>
       <use xlink:href="#DejaVuSans-32" x="166.259766"/>
       <use xlink:href="#DejaVuSans-29" x="229.882812"/>
      </g>
     </g>
    </g>
    <g id="xtick_19">
     <g id="text_19">
      <!-- (197) -->
      <g transform="translate(270.267901 338.97145) rotate(-45) scale(0.1 -0.1)">
       <use xlink:href="#DejaVuSans-28"/>
       <use xlink:href="#DejaVuSans-31" x="39.013672"/>
       <use xlink:href="#DejaVuSans-39" x="102.636719"/>
       <use xlink:href="#DejaVuSans-37" x="166.259766"/>
       <use xlink:href="#DejaVuSans-29" x="229.882812"/>
      </g>
     </g>
    </g>
    <g id="xtick_20">
     <g id="text_20">
      <!-- (285) -->
      <g transform="translate(282.171901 338.97145) rotate(-45) scale(0.1 -0.1)">
       <use xlink:href="#DejaVuSans-28"/>
       <use xlink:href="#DejaVuSans-32" x="39.013672"/>
       <use xlink:href="#DejaVuSans-38" x="102.636719"/>
       <use xlink:href="#DejaVuSans-35" x="166.259766"/>
       <use xlink:href="#DejaVuSans-29" x="229.882812"/>
      </g>
     </g>
    </g>
    <g id="xtick_21">
     <g id="text_21">
      <!-- (166) -->
      <g transform="translate(294.075901 338.97145) rotate(-45) scale(0.1 -0.1)">
       <use xlink:href="#DejaVuSans-28"/>
       <use xlink:href="#DejaVuSans-31" x="39.013672"/>
       <use xlink:href="#DejaVuSans-36" x="102.636719"/>
       <use xlink:href="#DejaVuSans-36" x="166.259766"/>
       <use xlink:href="#DejaVuSans-29" x="229.882812"/>
      </g>
     </g>
    </g>
    <g id="xtick_22">
     <g id="text_22">
      <!-- (262) -->
      <g transform="translate(305.979901 338.97145) rotate(-45) scale(0.1 -0.1)">
       <use xlink:href="#DejaVuSans-28"/>
       <use xlink:href="#DejaVuSans-32" x="39.013672"/>
       <use xlink:href="#DejaVuSans-36" x="102.636719"/>
       <use xlink:href="#DejaVuSans-32" x="166.259766"/>
       <use xlink:href="#DejaVuSans-29" x="229.882812"/>
      </g>
     </g>
    </g>
    <g id="xtick_23">
     <g id="text_23">
      <!-- (188) -->
      <g transform="translate(317.883901 338.97145) rotate(-45) scale(0.1 -0.1)">
       <use xlink:href="#DejaVuSans-28"/>
       <use xlink:href="#DejaVuSans-31" x="39.013672"/>
       <use xlink:href="#DejaVuSans-38" x="102.636719"/>
       <use xlink:href="#DejaVuSans-38" x="166.259766"/>
       <use xlink:href="#DejaVuSans-29" x="229.882812"/>
      </g>
     </g>
    </g>
    <g id="xtick_24">
     <g id="text_24">
      <!-- (720) -->
      <g transform="translate(329.787901 338.97145) rotate(-45) scale(0.1 -0.1)">
       <use xlink:href="#DejaVuSans-28"/>
       <use xlink:href="#DejaVuSans-37" x="39.013672"/>
       <use xlink:href="#DejaVuSans-32" x="102.636719"/>
       <use xlink:href="#DejaVuSans-30" x="166.259766"/>
       <use xlink:href="#DejaVuSans-29" x="229.882812"/>
      </g>
     </g>
    </g>
    <g id="xtick_25">
     <g id="text_25">
      <!-- (791) -->
      <g transform="translate(341.691901 338.97145) rotate(-45) scale(0.1 -0.1)">
       <use xlink:href="#DejaVuSans-28"/>
       <use xlink:href="#DejaVuSans-37" x="39.013672"/>
       <use xlink:href="#DejaVuSans-39" x="102.636719"/>
       <use xlink:href="#DejaVuSans-31" x="166.259766"/>
       <use xlink:href="#DejaVuSans-29" x="229.882812"/>
      </g>
     </g>
    </g>
    <g id="xtick_26">
     <g id="text_26">
      <!-- (940) -->
      <g transform="translate(353.595901 338.97145) rotate(-45) scale(0.1 -0.1)">
       <use xlink:href="#DejaVuSans-28"/>
       <use xlink:href="#DejaVuSans-39" x="39.013672"/>
       <use xlink:href="#DejaVuSans-34" x="102.636719"/>
       <use xlink:href="#DejaVuSans-30" x="166.259766"/>
       <use xlink:href="#DejaVuSans-29" x="229.882812"/>
      </g>
     </g>
    </g>
    <g id="xtick_27">
     <g id="text_27">
      <!-- (865) -->
      <g transform="translate(365.499901 338.97145) rotate(-45) scale(0.1 -0.1)">
       <use xlink:href="#DejaVuSans-28"/>
       <use xlink:href="#DejaVuSans-38" x="39.013672"/>
       <use xlink:href="#DejaVuSans-36" x="102.636719"/>
       <use xlink:href="#DejaVuSans-35" x="166.259766"/>
       <use xlink:href="#DejaVuSans-29" x="229.882812"/>
      </g>
     </g>
    </g>
    <g id="xtick_28">
     <g id="text_28">
      <!-- (839) -->
      <g transform="translate(377.403901 338.97145) rotate(-45) scale(0.1 -0.1)">
       <use xlink:href="#DejaVuSans-28"/>
       <use xlink:href="#DejaVuSans-38" x="39.013672"/>
       <use xlink:href="#DejaVuSans-33" x="102.636719"/>
       <use xlink:href="#DejaVuSans-39" x="166.259766"/>
       <use xlink:href="#DejaVuSans-29" x="229.882812"/>
      </g>
     </g>
    </g>
    <g id="xtick_29">
     <g id="text_29">
      <!-- (176) -->
      <g transform="translate(389.307901 338.97145) rotate(-45) scale(0.1 -0.1)">
       <use xlink:href="#DejaVuSans-28"/>
       <use xlink:href="#DejaVuSans-31" x="39.013672"/>
       <use xlink:href="#DejaVuSans-37" x="102.636719"/>
       <use xlink:href="#DejaVuSans-36" x="166.259766"/>
       <use xlink:href="#DejaVuSans-29" x="229.882812"/>
      </g>
     </g>
    </g>
    <g id="xtick_30">
     <g id="text_30">
      <!-- (294) -->
      <g transform="translate(401.211901 338.97145) rotate(-45) scale(0.1 -0.1)">
       <use xlink:href="#DejaVuSans-28"/>
       <use xlink:href="#DejaVuSans-32" x="39.013672"/>
       <use xlink:href="#DejaVuSans-39" x="102.636719"/>
       <use xlink:href="#DejaVuSans-34" x="166.259766"/>
       <use xlink:href="#DejaVuSans-29" x="229.882812"/>
      </g>
     </g>
    </g>
   </g>
   <g id="matplotlib.axis_2">
    <g id="ytick_1">
     <g id="line2d_1">
      <defs>
       <path id="ma2c35b0a0e" d="M 0 0 
L -3.5 0 
" style="stroke: #000000; stroke-width: 0.8"/>
      </defs>
      <g>
       <use xlink:href="#ma2c35b0a0e" x="57.6" y="307.584" style="stroke: #000000; stroke-width: 0.8"/>
      </g>
     </g>
     <g id="text_31">
      <!-- 0 -->
      <g transform="translate(44.2375 311.383219) scale(0.1 -0.1)">
       <use xlink:href="#DejaVuSans-30"/>
      </g>
     </g>
    </g>
    <g id="ytick_2">
     <g id="line2d_2">
      <g>
       <use xlink:href="#ma2c35b0a0e" x="57.6" y="276.435109" style="stroke: #000000; stroke-width: 0.8"/>
      </g>
     </g>
     <g id="text_32">
      <!-- 2 -->
      <g transform="translate(44.2375 280.234328) scale(0.1 -0.1)">
       <use xlink:href="#DejaVuSans-32"/>
      </g>
     </g>
    </g>
    <g id="ytick_3">
     <g id="line2d_3">
      <g>
       <use xlink:href="#ma2c35b0a0e" x="57.6" y="245.286219" style="stroke: #000000; stroke-width: 0.8"/>
      </g>
     </g>
     <g id="text_33">
      <!-- 4 -->
      <g transform="translate(44.2375 249.085438) scale(0.1 -0.1)">
       <use xlink:href="#DejaVuSans-34"/>
      </g>
     </g>
    </g>
    <g id="ytick_4">
     <g id="line2d_4">
      <g>
       <use xlink:href="#ma2c35b0a0e" x="57.6" y="214.137328" style="stroke: #000000; stroke-width: 0.8"/>
      </g>
     </g>
     <g id="text_34">
      <!-- 6 -->
      <g transform="translate(44.2375 217.936547) scale(0.1 -0.1)">
       <use xlink:href="#DejaVuSans-36"/>
      </g>
     </g>
    </g>
    <g id="ytick_5">
     <g id="line2d_5">
      <g>
       <use xlink:href="#ma2c35b0a0e" x="57.6" y="182.988438" style="stroke: #000000; stroke-width: 0.8"/>
      </g>
     </g>
     <g id="text_35">
      <!-- 8 -->
      <g transform="translate(44.2375 186.787656) scale(0.1 -0.1)">
       <use xlink:href="#DejaVuSans-38"/>
      </g>
     </g>
    </g>
    <g id="ytick_6">
     <g id="line2d_6">
      <g>
       <use xlink:href="#ma2c35b0a0e" x="57.6" y="151.839547" style="stroke: #000000; stroke-width: 0.8"/>
      </g>
     </g>
     <g id="text_36">
      <!-- 10 -->
      <g transform="translate(37.875 155.638766) scale(0.1 -0.1)">
       <use xlink:href="#DejaVuSans-31"/>
       <use xlink:href="#DejaVuSans-30" x="63.623047"/>
      </g>
     </g>
    </g>
    <g id="ytick_7">
     <g id="line2d_7">
      <g>
       <use xlink:href="#ma2c35b0a0e" x="57.6" y="120.690657" style="stroke: #000000; stroke-width: 0.8"/>
      </g>
     </g>
     <g id="text_37">
      <!-- 12 -->
      <g transform="translate(37.875 124.489875) scale(0.1 -0.1)">
       <use xlink:href="#DejaVuSans-31"/>
       <use xlink:href="#DejaVuSans-32" x="63.623047"/>
      </g>
     </g>
    </g>
    <g id="ytick_8">
     <g id="line2d_8">
      <g>
       <use xlink:href="#ma2c35b0a0e" x="57.6" y="89.541766" style="stroke: #000000; stroke-width: 0.8"/>
      </g>
     </g>
     <g id="text_38">
      <!-- 14 -->
      <g transform="translate(37.875 93.340985) scale(0.1 -0.1)">
       <use xlink:href="#DejaVuSans-31"/>
       <use xlink:href="#DejaVuSans-34" x="63.623047"/>
      </g>
     </g>
    </g>
    <g id="ytick_9">
     <g id="line2d_9">
      <g>
       <use xlink:href="#ma2c35b0a0e" x="57.6" y="58.392875" style="stroke: #000000; stroke-width: 0.8"/>
      </g>
     </g>
     <g id="text_39">
      <!-- 16 -->
      <g transform="translate(37.875 62.192094) scale(0.1 -0.1)">
       <use xlink:href="#DejaVuSans-31"/>
       <use xlink:href="#DejaVuSans-36" x="63.623047"/>
      </g>
     </g>
    </g>
   </g>
   <g id="LineCollection_1">
    <path d="M 63.552 307.584 
L 63.552 190.855092 
L 75.456 190.855092 
L 75.456 307.584 
" clip-path="url(#pcb24d48d6c)" style="fill: none; stroke: #ff7f0e; stroke-width: 1.5"/>
   </g>
   <g id="LineCollection_2">
    <path d="M 87.36 307.584 
L 87.36 172.039719 
L 99.264 172.039719 
L 99.264 307.584 
" clip-path="url(#pcb24d48d6c)" style="fill: none; stroke: #2ca02c; stroke-width: 1.5"/>
   </g>
   <g id="LineCollection_3">
    <path d="M 134.976 307.584 
L 134.976 185.332926 
L 146.88 185.332926 
L 146.88 307.584 
" clip-path="url(#pcb24d48d6c)" style="fill: none; stroke: #d62728; stroke-width: 1.5"/>
    <path d="M 123.072 307.584 
L 123.072 170.143717 
L 140.928 170.143717 
L 140.928 185.332926 
" clip-path="url(#pcb24d48d6c)" style="fill: none; stroke: #d62728; stroke-width: 1.5"/>
    <path d="M 111.168 307.584 
L 111.168 134.917207 
L 132 134.917207 
L 132 170.143717 
" clip-path="url(#pcb24d48d6c)" style="fill: none; stroke: #d62728; stroke-width: 1.5"/>
   </g>
   <g id="LineCollection_4">
    <path d="M 158.784 307.584 
L 158.784 180.627047 
L 170.688 180.627047 
L 170.688 307.584 
" clip-path="url(#pcb24d48d6c)" style="fill: none; stroke: #9467bd; stroke-width: 1.5"/>
    <path d="M 182.592 307.584 
L 182.592 173.549899 
L 194.496 173.549899 
L 194.496 307.584 
" clip-path="url(#pcb24d48d6c)" style="fill: none; stroke: #9467bd; stroke-width: 1.5"/>
    <path d="M 164.736 180.627047 
L 164.736 156.991606 
L 188.544 156.991606 
L 188.544 173.549899 
" clip-path="url(#pcb24d48d6c)" style="fill: none; stroke: #9467bd; stroke-width: 1.5"/>
    <path d="M 242.112 307.584 
L 242.112 195.638705 
L 254.016 195.638705 
L 254.016 307.584 
" clip-path="url(#pcb24d48d6c)" style="fill: none; stroke: #9467bd; stroke-width: 1.5"/>
    <path d="M 230.208 307.584 
L 230.208 180.595762 
L 248.064 180.595762 
L 248.064 195.638705 
" clip-path="url(#pcb24d48d6c)" style="fill: none; stroke: #9467bd; stroke-width: 1.5"/>
    <path d="M 218.304 307.584 
L 218.304 176.085872 
L 239.136 176.085872 
L 239.136 180.595762 
" clip-path="url(#pcb24d48d6c)" style="fill: none; stroke: #9467bd; stroke-width: 1.5"/>
    <path d="M 206.4 307.584 
L 206.4 148.147642 
L 228.72 148.147642 
L 228.72 176.085872 
" clip-path="url(#pcb24d48d6c)" style="fill: none; stroke: #9467bd; stroke-width: 1.5"/>
    <path d="M 176.64 156.991606 
L 176.64 132.701737 
L 217.56 132.701737 
L 217.56 148.147642 
" clip-path="url(#pcb24d48d6c)" style="fill: none; stroke: #9467bd; stroke-width: 1.5"/>
   </g>
   <g id="LineCollection_5">
    <path d="M 265.92 307.584 
L 265.92 197.39313 
L 277.824 197.39313 
L 277.824 307.584 
" clip-path="url(#pcb24d48d6c)" style="fill: none; stroke: #8c564b; stroke-width: 1.5"/>
   </g>
   <g id="LineCollection_6">
    <path d="M 301.632 307.584 
L 301.632 192.18073 
L 313.536 192.18073 
L 313.536 307.584 
" clip-path="url(#pcb24d48d6c)" style="fill: none; stroke: #e377c2; stroke-width: 1.5"/>
    <path d="M 289.728 307.584 
L 289.728 154.276021 
L 307.584 154.276021 
L 307.584 192.18073 
" clip-path="url(#pcb24d48d6c)" style="fill: none; stroke: #e377c2; stroke-width: 1.5"/>
   </g>
   <g id="LineCollection_7">
    <path d="M 325.44 307.584 
L 325.44 203.308847 
L 337.344 203.308847 
L 337.344 307.584 
" clip-path="url(#pcb24d48d6c)" style="fill: none; stroke: #7f7f7f; stroke-width: 1.5"/>
    <path d="M 349.248 307.584 
L 349.248 193.317627 
L 361.152 193.317627 
L 361.152 307.584 
" clip-path="url(#pcb24d48d6c)" style="fill: none; stroke: #7f7f7f; stroke-width: 1.5"/>
    <path d="M 331.392 203.308847 
L 331.392 182.096064 
L 355.2 182.096064 
L 355.2 193.317627 
" clip-path="url(#pcb24d48d6c)" style="fill: none; stroke: #7f7f7f; stroke-width: 1.5"/>
    <path d="M 373.056 307.584 
L 373.056 193.621637 
L 384.96 193.621637 
L 384.96 307.584 
" clip-path="url(#pcb24d48d6c)" style="fill: none; stroke: #7f7f7f; stroke-width: 1.5"/>
    <path d="M 396.864 307.584 
L 396.864 183.425392 
L 408.768 183.425392 
L 408.768 307.584 
" clip-path="url(#pcb24d48d6c)" style="fill: none; stroke: #7f7f7f; stroke-width: 1.5"/>
    <path d="M 379.008 193.621637 
L 379.008 168.138809 
L 402.816 168.138809 
L 402.816 183.425392 
" clip-path="url(#pcb24d48d6c)" style="fill: none; stroke: #7f7f7f; stroke-width: 1.5"/>
    <path d="M 343.296 182.096064 
L 343.296 149.809796 
L 390.912 149.809796 
L 390.912 168.138809 
" clip-path="url(#pcb24d48d6c)" style="fill: none; stroke: #7f7f7f; stroke-width: 1.5"/>
   </g>
   <g id="LineCollection_8">
    <path d="M 69.504 190.855092 
L 69.504 97.830038 
L 93.312 97.830038 
L 93.312 172.039719 
" clip-path="url(#pcb24d48d6c)" style="fill: none; stroke: #1f77b4; stroke-width: 1.5"/>
    <path d="M 121.584 134.917207 
L 121.584 105.712837 
L 197.1 105.712837 
L 197.1 132.701737 
" clip-path="url(#pcb24d48d6c)" style="fill: none; stroke: #1f77b4; stroke-width: 1.5"/>
    <path d="M 298.656 154.276021 
L 298.656 100.764428 
L 367.104 100.764428 
L 367.104 149.809796 
" clip-path="url(#pcb24d48d6c)" style="fill: none; stroke: #1f77b4; stroke-width: 1.5"/>
    <path d="M 271.872 197.39313 
L 271.872 87.885148 
L 332.88 87.885148 
L 332.88 100.764428 
" clip-path="url(#pcb24d48d6c)" style="fill: none; stroke: #1f77b4; stroke-width: 1.5"/>
    <path d="M 159.342 105.712837 
L 159.342 80.38368 
L 302.376 80.38368 
L 302.376 87.885148 
" clip-path="url(#pcb24d48d6c)" style="fill: none; stroke: #1f77b4; stroke-width: 1.5"/>
    <path d="M 81.408 97.830038 
L 81.408 54.144 
L 230.859 54.144 
L 230.859 80.38368 
" clip-path="url(#pcb24d48d6c)" style="fill: none; stroke: #1f77b4; stroke-width: 1.5"/>
   </g>
   <g id="patch_3">
    <path d="M 57.6 307.584 
L 57.6 41.472 
" style="fill: none; stroke: #000000; stroke-width: 0.8; stroke-linejoin: miter; stroke-linecap: square"/>
   </g>
   <g id="patch_4">
    <path d="M 414.72 307.584 
L 414.72 41.472 
" style="fill: none; stroke: #000000; stroke-width: 0.8; stroke-linejoin: miter; stroke-linecap: square"/>
   </g>
   <g id="patch_5">
    <path d="M 57.6 307.584 
L 414.72 307.584 
" style="fill: none; stroke: #000000; stroke-width: 0.8; stroke-linejoin: miter; stroke-linecap: square"/>
   </g>
   <g id="patch_6">
    <path d="M 57.6 41.472 
L 414.72 41.472 
" style="fill: none; stroke: #000000; stroke-width: 0.8; stroke-linejoin: miter; stroke-linecap: square"/>
   </g>
  </g>
 </g>
 <defs>
  <clipPath id="pcb24d48d6c">
   <rect x="57.6" y="41.472" width="357.12" height="266.112"/>
  </clipPath>
 </defs>
</svg>
