<?xml version="1.0" encoding="utf-8" standalone="no"?>
<!DOCTYPE svg PUBLIC "-//W3C//DTD SVG 1.1//EN"
  "http://www.w3.org/Graphics/SVG/1.1/DTD/svg11.dtd">
<svg xmlns:xlink="http://www.w3.org/1999/xlink" width="460.8pt" height="345.6pt" viewBox="0 0 460.8 345.6" xmlns="http://www.w3.org/2000/svg" version="1.1">
 <metadata>
  <rdf:RDF xmlns:dc="http://purl.org/dc/elements/1.1/" xmlns:cc="http://creativecommons.org/ns#" xmlns:rdf="http://www.w3.org/1999/02/22-rdf-syntax-ns#">
   <cc:Work>
    <dc:type rdf:resource="http://purl.org/dc/dcmitype/StillImage"/>
    <dc:date>2023-11-10T13:30:37.781857</dc:date>
    <dc:format>image/svg+xml</dc:format>
    <dc:creator>
     <cc:Agent>
      <dc:title>Matplotlib v3.8.0, https://matplotlib.org/</dc:title>
     </cc:Agent>
    </dc:creator>
   </cc:Work>
  </rdf:RDF>
 </metadata>
 <defs>
  <style type="text/css">*{stroke-linejoin: round; stroke-linecap: butt}</style>
 </defs>
 <g id="figure_1">
  <g id="patch_1">
   <path d="M 0 345.6 
L 460.8 345.6 
L 460.8 0 
L 0 0 
z
" style="fill: #ffffff"/>
  </g>
  <g id="axes_1">
   <g id="patch_2">
    <path d="M 57.6 307.584 
L 414.72 307.584 
L 414.72 41.472 
L 57.6 41.472 
z
" style="fill: #ffffff"/>
   </g>
   <g id="matplotlib.axis_1">
    <g id="xtick_1">
     <g id="text_1">
      <!-- (8329) -->
      <g transform="translate(53.746418 343.470417) rotate(-45) scale(0.1 -0.1)">
       <defs>
        <path id="DejaVuSans-28" d="M 1984 4856 
Q 1566 4138 1362 3434 
Q 1159 2731 1159 2009 
Q 1159 1288 1364 580 
Q 1569 -128 1984 -844 
L 1484 -844 
Q 1016 -109 783 600 
Q 550 1309 550 2009 
Q 550 2706 781 3412 
Q 1013 4119 1484 4856 
L 1984 4856 
z
" transform="scale(0.015625)"/>
        <path id="DejaVuSans-38" d="M 2034 2216 
Q 1584 2216 1326 1975 
Q 1069 1734 1069 1313 
Q 1069 891 1326 650 
Q 1584 409 2034 409 
Q 2484 409 2743 651 
Q 3003 894 3003 1313 
Q 3003 1734 2745 1975 
Q 2488 2216 2034 2216 
z
M 1403 2484 
Q 997 2584 770 2862 
Q 544 3141 544 3541 
Q 544 4100 942 4425 
Q 1341 4750 2034 4750 
Q 2731 4750 3128 4425 
Q 3525 4100 3525 3541 
Q 3525 3141 3298 2862 
Q 3072 2584 2669 2484 
Q 3125 2378 3379 2068 
Q 3634 1759 3634 1313 
Q 3634 634 3220 271 
Q 2806 -91 2034 -91 
Q 1263 -91 848 271 
Q 434 634 434 1313 
Q 434 1759 690 2068 
Q 947 2378 1403 2484 
z
M 1172 3481 
Q 1172 3119 1398 2916 
Q 1625 2713 2034 2713 
Q 2441 2713 2670 2916 
Q 2900 3119 2900 3481 
Q 2900 3844 2670 4047 
Q 2441 4250 2034 4250 
Q 1625 4250 1398 4047 
Q 1172 3844 1172 3481 
z
" transform="scale(0.015625)"/>
        <path id="DejaVuSans-33" d="M 2597 2516 
Q 3050 2419 3304 2112 
Q 3559 1806 3559 1356 
Q 3559 666 3084 287 
Q 2609 -91 1734 -91 
Q 1441 -91 1130 -33 
Q 819 25 488 141 
L 488 750 
Q 750 597 1062 519 
Q 1375 441 1716 441 
Q 2309 441 2620 675 
Q 2931 909 2931 1356 
Q 2931 1769 2642 2001 
Q 2353 2234 1838 2234 
L 1294 2234 
L 1294 2753 
L 1863 2753 
Q 2328 2753 2575 2939 
Q 2822 3125 2822 3475 
Q 2822 3834 2567 4026 
Q 2313 4219 1838 4219 
Q 1578 4219 1281 4162 
Q 984 4106 628 3988 
L 628 4550 
Q 988 4650 1302 4700 
Q 1616 4750 1894 4750 
Q 2613 4750 3031 4423 
Q 3450 4097 3450 3541 
Q 3450 3153 3228 2886 
Q 3006 2619 2597 2516 
z
" transform="scale(0.015625)"/>
        <path id="DejaVuSans-32" d="M 1228 531 
L 3431 531 
L 3431 0 
L 469 0 
L 469 531 
Q 828 903 1448 1529 
Q 2069 2156 2228 2338 
Q 2531 2678 2651 2914 
Q 2772 3150 2772 3378 
Q 2772 3750 2511 3984 
Q 2250 4219 1831 4219 
Q 1534 4219 1204 4116 
Q 875 4013 500 3803 
L 500 4441 
Q 881 4594 1212 4672 
Q 1544 4750 1819 4750 
Q 2544 4750 2975 4387 
Q 3406 4025 3406 3419 
Q 3406 3131 3298 2873 
Q 3191 2616 2906 2266 
Q 2828 2175 2409 1742 
Q 1991 1309 1228 531 
z
" transform="scale(0.015625)"/>
        <path id="DejaVuSans-39" d="M 703 97 
L 703 672 
Q 941 559 1184 500 
Q 1428 441 1663 441 
Q 2288 441 2617 861 
Q 2947 1281 2994 2138 
Q 2813 1869 2534 1725 
Q 2256 1581 1919 1581 
Q 1219 1581 811 2004 
Q 403 2428 403 3163 
Q 403 3881 828 4315 
Q 1253 4750 1959 4750 
Q 2769 4750 3195 4129 
Q 3622 3509 3622 2328 
Q 3622 1225 3098 567 
Q 2575 -91 1691 -91 
Q 1453 -91 1209 -44 
Q 966 3 703 97 
z
M 1959 2075 
Q 2384 2075 2632 2365 
Q 2881 2656 2881 3163 
Q 2881 3666 2632 3958 
Q 2384 4250 1959 4250 
Q 1534 4250 1286 3958 
Q 1038 3666 1038 3163 
Q 1038 2656 1286 2365 
Q 1534 2075 1959 2075 
z
" transform="scale(0.015625)"/>
        <path id="DejaVuSans-29" d="M 513 4856 
L 1013 4856 
Q 1481 4119 1714 3412 
Q 1947 2706 1947 2009 
Q 1947 1309 1714 600 
Q 1481 -109 1013 -844 
L 513 -844 
Q 928 -128 1133 580 
Q 1338 1288 1338 2009 
Q 1338 2731 1133 3434 
Q 928 4138 513 4856 
z
" transform="scale(0.015625)"/>
       </defs>
       <use xlink:href="#DejaVuSans-28"/>
       <use xlink:href="#DejaVuSans-38" x="39.013672"/>
       <use xlink:href="#DejaVuSans-33" x="102.636719"/>
       <use xlink:href="#DejaVuSans-32" x="166.259766"/>
       <use xlink:href="#DejaVuSans-39" x="229.882812"/>
       <use xlink:href="#DejaVuSans-29" x="293.505859"/>
      </g>
     </g>
    </g>
    <g id="xtick_2">
     <g id="text_2">
      <!-- 93 -->
      <g transform="translate(72.908206 328.95484) rotate(-45) scale(0.1 -0.1)">
       <use xlink:href="#DejaVuSans-39"/>
       <use xlink:href="#DejaVuSans-33" x="63.623047"/>
      </g>
     </g>
    </g>
    <g id="xtick_3">
     <g id="text_3">
      <!-- 3358 -->
      <g transform="translate(80.313239 337.952774) rotate(-45) scale(0.1 -0.1)">
       <defs>
        <path id="DejaVuSans-35" d="M 691 4666 
L 3169 4666 
L 3169 4134 
L 1269 4134 
L 1269 2991 
Q 1406 3038 1543 3061 
Q 1681 3084 1819 3084 
Q 2600 3084 3056 2656 
Q 3513 2228 3513 1497 
Q 3513 744 3044 326 
Q 2575 -91 1722 -91 
Q 1428 -91 1123 -41 
Q 819 9 494 109 
L 494 744 
Q 775 591 1075 516 
Q 1375 441 1709 441 
Q 2250 441 2565 725 
Q 2881 1009 2881 1497 
Q 2881 1984 2565 2268 
Q 2250 2553 1709 2553 
Q 1456 2553 1204 2497 
Q 953 2441 691 2322 
L 691 4666 
z
" transform="scale(0.015625)"/>
       </defs>
       <use xlink:href="#DejaVuSans-33"/>
       <use xlink:href="#DejaVuSans-33" x="63.623047"/>
       <use xlink:href="#DejaVuSans-35" x="127.246094"/>
       <use xlink:href="#DejaVuSans-38" x="190.869141"/>
      </g>
     </g>
    </g>
    <g id="xtick_4">
     <g id="text_4">
      <!-- (2) -->
      <g transform="translate(96.206868 329.973516) rotate(-45) scale(0.1 -0.1)">
       <use xlink:href="#DejaVuSans-28"/>
       <use xlink:href="#DejaVuSans-32" x="39.013672"/>
       <use xlink:href="#DejaVuSans-29" x="102.636719"/>
      </g>
     </g>
    </g>
    <g id="xtick_5">
     <g id="text_5">
      <!-- 2300 -->
      <g transform="translate(104.121239 337.952774) rotate(-45) scale(0.1 -0.1)">
       <defs>
        <path id="DejaVuSans-30" d="M 2034 4250 
Q 1547 4250 1301 3770 
Q 1056 3291 1056 2328 
Q 1056 1369 1301 889 
Q 1547 409 2034 409 
Q 2525 409 2770 889 
Q 3016 1369 3016 2328 
Q 3016 3291 2770 3770 
Q 2525 4250 2034 4250 
z
M 2034 4750 
Q 2819 4750 3233 4129 
Q 3647 3509 3647 2328 
Q 3647 1150 3233 529 
Q 2819 -91 2034 -91 
Q 1250 -91 836 529 
Q 422 1150 422 2328 
Q 422 3509 836 4129 
Q 1250 4750 2034 4750 
z
" transform="scale(0.015625)"/>
       </defs>
       <use xlink:href="#DejaVuSans-32"/>
       <use xlink:href="#DejaVuSans-33" x="63.623047"/>
       <use xlink:href="#DejaVuSans-30" x="127.246094"/>
       <use xlink:href="#DejaVuSans-30" x="190.869141"/>
      </g>
     </g>
    </g>
    <g id="xtick_6">
     <g id="text_6">
      <!-- 2343 -->
      <g transform="translate(116.025239 337.952774) rotate(-45) scale(0.1 -0.1)">
       <defs>
        <path id="DejaVuSans-34" d="M 2419 4116 
L 825 1625 
L 2419 1625 
L 2419 4116 
z
M 2253 4666 
L 3047 4666 
L 3047 1625 
L 3713 1625 
L 3713 1100 
L 3047 1100 
L 3047 0 
L 2419 0 
L 2419 1100 
L 313 1100 
L 313 1709 
L 2253 4666 
z
" transform="scale(0.015625)"/>
       </defs>
       <use xlink:href="#DejaVuSans-32"/>
       <use xlink:href="#DejaVuSans-33" x="63.623047"/>
       <use xlink:href="#DejaVuSans-34" x="127.246094"/>
       <use xlink:href="#DejaVuSans-33" x="190.869141"/>
      </g>
     </g>
    </g>
    <g id="xtick_7">
     <g id="text_7">
      <!-- (3) -->
      <g transform="translate(131.918868 329.973516) rotate(-45) scale(0.1 -0.1)">
       <use xlink:href="#DejaVuSans-28"/>
       <use xlink:href="#DejaVuSans-33" x="39.013672"/>
       <use xlink:href="#DejaVuSans-29" x="102.636719"/>
      </g>
     </g>
    </g>
    <g id="xtick_8">
     <g id="text_8">
      <!-- 4148 -->
      <g transform="translate(139.833239 337.952774) rotate(-45) scale(0.1 -0.1)">
       <defs>
        <path id="DejaVuSans-31" d="M 794 531 
L 1825 531 
L 1825 4091 
L 703 3866 
L 703 4441 
L 1819 4666 
L 2450 4666 
L 2450 531 
L 3481 531 
L 3481 0 
L 794 0 
L 794 531 
z
" transform="scale(0.015625)"/>
       </defs>
       <use xlink:href="#DejaVuSans-34"/>
       <use xlink:href="#DejaVuSans-31" x="63.623047"/>
       <use xlink:href="#DejaVuSans-34" x="127.246094"/>
       <use xlink:href="#DejaVuSans-38" x="190.869141"/>
      </g>
     </g>
    </g>
    <g id="xtick_9">
     <g id="text_9">
      <!-- (6) -->
      <g transform="translate(155.726868 329.973516) rotate(-45) scale(0.1 -0.1)">
       <defs>
        <path id="DejaVuSans-36" d="M 2113 2584 
Q 1688 2584 1439 2293 
Q 1191 2003 1191 1497 
Q 1191 994 1439 701 
Q 1688 409 2113 409 
Q 2538 409 2786 701 
Q 3034 994 3034 1497 
Q 3034 2003 2786 2293 
Q 2538 2584 2113 2584 
z
M 3366 4563 
L 3366 3988 
Q 3128 4100 2886 4159 
Q 2644 4219 2406 4219 
Q 1781 4219 1451 3797 
Q 1122 3375 1075 2522 
Q 1259 2794 1537 2939 
Q 1816 3084 2150 3084 
Q 2853 3084 3261 2657 
Q 3669 2231 3669 1497 
Q 3669 778 3244 343 
Q 2819 -91 2113 -91 
Q 1303 -91 875 529 
Q 447 1150 447 2328 
Q 447 3434 972 4092 
Q 1497 4750 2381 4750 
Q 2619 4750 2861 4703 
Q 3103 4656 3366 4563 
z
" transform="scale(0.015625)"/>
       </defs>
       <use xlink:href="#DejaVuSans-28"/>
       <use xlink:href="#DejaVuSans-36" x="39.013672"/>
       <use xlink:href="#DejaVuSans-29" x="102.636719"/>
      </g>
     </g>
    </g>
    <g id="xtick_10">
     <g id="text_10">
      <!-- (2) -->
      <g transform="translate(167.630868 329.973516) rotate(-45) scale(0.1 -0.1)">
       <use xlink:href="#DejaVuSans-28"/>
       <use xlink:href="#DejaVuSans-32" x="39.013672"/>
       <use xlink:href="#DejaVuSans-29" x="102.636719"/>
      </g>
     </g>
    </g>
    <g id="xtick_11">
     <g id="text_11">
      <!-- (2) -->
      <g transform="translate(179.534868 329.973516) rotate(-45) scale(0.1 -0.1)">
       <use xlink:href="#DejaVuSans-28"/>
       <use xlink:href="#DejaVuSans-32" x="39.013672"/>
       <use xlink:href="#DejaVuSans-29" x="102.636719"/>
      </g>
     </g>
    </g>
    <g id="xtick_12">
     <g id="text_12">
      <!-- (3) -->
      <g transform="translate(191.438868 329.973516) rotate(-45) scale(0.1 -0.1)">
       <use xlink:href="#DejaVuSans-28"/>
       <use xlink:href="#DejaVuSans-33" x="39.013672"/>
       <use xlink:href="#DejaVuSans-29" x="102.636719"/>
      </g>
     </g>
    </g>
    <g id="xtick_13">
     <g id="text_13">
      <!-- (7) -->
      <g transform="translate(203.342868 329.973516) rotate(-45) scale(0.1 -0.1)">
       <defs>
        <path id="DejaVuSans-37" d="M 525 4666 
L 3525 4666 
L 3525 4397 
L 1831 0 
L 1172 0 
L 2766 4134 
L 525 4134 
L 525 4666 
z
" transform="scale(0.015625)"/>
       </defs>
       <use xlink:href="#DejaVuSans-28"/>
       <use xlink:href="#DejaVuSans-37" x="39.013672"/>
       <use xlink:href="#DejaVuSans-29" x="102.636719"/>
      </g>
     </g>
    </g>
    <g id="xtick_14">
     <g id="text_14">
      <!-- (77) -->
      <g transform="translate(212.997385 334.472483) rotate(-45) scale(0.1 -0.1)">
       <use xlink:href="#DejaVuSans-28"/>
       <use xlink:href="#DejaVuSans-37" x="39.013672"/>
       <use xlink:href="#DejaVuSans-37" x="102.636719"/>
       <use xlink:href="#DejaVuSans-29" x="166.259766"/>
      </g>
     </g>
    </g>
    <g id="xtick_15">
     <g id="text_15">
      <!-- 5530 -->
      <g transform="translate(223.161239 337.952774) rotate(-45) scale(0.1 -0.1)">
       <use xlink:href="#DejaVuSans-35"/>
       <use xlink:href="#DejaVuSans-35" x="63.623047"/>
       <use xlink:href="#DejaVuSans-33" x="127.246094"/>
       <use xlink:href="#DejaVuSans-30" x="190.869141"/>
      </g>
     </g>
    </g>
    <g id="xtick_16">
     <g id="text_16">
      <!-- 4855 -->
      <g transform="translate(235.065239 337.952774) rotate(-45) scale(0.1 -0.1)">
       <use xlink:href="#DejaVuSans-34"/>
       <use xlink:href="#DejaVuSans-38" x="63.623047"/>
       <use xlink:href="#DejaVuSans-35" x="127.246094"/>
       <use xlink:href="#DejaVuSans-35" x="190.869141"/>
      </g>
     </g>
    </g>
    <g id="xtick_17">
     <g id="text_17">
      <!-- 36 -->
      <g transform="translate(251.468206 328.95484) rotate(-45) scale(0.1 -0.1)">
       <use xlink:href="#DejaVuSans-33"/>
       <use xlink:href="#DejaVuSans-36" x="63.623047"/>
      </g>
     </g>
    </g>
    <g id="xtick_18">
     <g id="text_18">
      <!-- (2) -->
      <g transform="translate(262.862868 329.973516) rotate(-45) scale(0.1 -0.1)">
       <use xlink:href="#DejaVuSans-28"/>
       <use xlink:href="#DejaVuSans-32" x="39.013672"/>
       <use xlink:href="#DejaVuSans-29" x="102.636719"/>
      </g>
     </g>
    </g>
    <g id="xtick_19">
     <g id="text_19">
      <!-- (17) -->
      <g transform="translate(272.517385 334.472483) rotate(-45) scale(0.1 -0.1)">
       <use xlink:href="#DejaVuSans-28"/>
       <use xlink:href="#DejaVuSans-31" x="39.013672"/>
       <use xlink:href="#DejaVuSans-37" x="102.636719"/>
       <use xlink:href="#DejaVuSans-29" x="166.259766"/>
      </g>
     </g>
    </g>
    <g id="xtick_20">
     <g id="text_20">
      <!-- (8) -->
      <g transform="translate(286.670868 329.973516) rotate(-45) scale(0.1 -0.1)">
       <use xlink:href="#DejaVuSans-28"/>
       <use xlink:href="#DejaVuSans-38" x="39.013672"/>
       <use xlink:href="#DejaVuSans-29" x="102.636719"/>
      </g>
     </g>
    </g>
    <g id="xtick_21">
     <g id="text_21">
      <!-- 6053 -->
      <g transform="translate(294.585239 337.952774) rotate(-45) scale(0.1 -0.1)">
       <use xlink:href="#DejaVuSans-36"/>
       <use xlink:href="#DejaVuSans-30" x="63.623047"/>
       <use xlink:href="#DejaVuSans-35" x="127.246094"/>
       <use xlink:href="#DejaVuSans-33" x="190.869141"/>
      </g>
     </g>
    </g>
    <g id="xtick_22">
     <g id="text_22">
      <!-- (3) -->
      <g transform="translate(310.478868 329.973516) rotate(-45) scale(0.1 -0.1)">
       <use xlink:href="#DejaVuSans-28"/>
       <use xlink:href="#DejaVuSans-33" x="39.013672"/>
       <use xlink:href="#DejaVuSans-29" x="102.636719"/>
      </g>
     </g>
    </g>
    <g id="xtick_23">
     <g id="text_23">
      <!-- 1968 -->
      <g transform="translate(318.393239 337.952774) rotate(-45) scale(0.1 -0.1)">
       <use xlink:href="#DejaVuSans-31"/>
       <use xlink:href="#DejaVuSans-39" x="63.623047"/>
       <use xlink:href="#DejaVuSans-36" x="127.246094"/>
       <use xlink:href="#DejaVuSans-38" x="190.869141"/>
      </g>
     </g>
    </g>
    <g id="xtick_24">
     <g id="text_24">
      <!-- (2) -->
      <g transform="translate(334.286868 329.973516) rotate(-45) scale(0.1 -0.1)">
       <use xlink:href="#DejaVuSans-28"/>
       <use xlink:href="#DejaVuSans-32" x="39.013672"/>
       <use xlink:href="#DejaVuSans-29" x="102.636719"/>
      </g>
     </g>
    </g>
    <g id="xtick_25">
     <g id="text_25">
      <!-- 751 -->
      <g transform="translate(344.450722 333.453807) rotate(-45) scale(0.1 -0.1)">
       <use xlink:href="#DejaVuSans-37"/>
       <use xlink:href="#DejaVuSans-35" x="63.623047"/>
       <use xlink:href="#DejaVuSans-31" x="127.246094"/>
      </g>
     </g>
    </g>
    <g id="xtick_26">
     <g id="text_26">
      <!-- (2) -->
      <g transform="translate(358.094868 329.973516) rotate(-45) scale(0.1 -0.1)">
       <use xlink:href="#DejaVuSans-28"/>
       <use xlink:href="#DejaVuSans-32" x="39.013672"/>
       <use xlink:href="#DejaVuSans-29" x="102.636719"/>
      </g>
     </g>
    </g>
    <g id="xtick_27">
     <g id="text_27">
      <!-- 1404 -->
      <g transform="translate(366.009239 337.952774) rotate(-45) scale(0.1 -0.1)">
       <use xlink:href="#DejaVuSans-31"/>
       <use xlink:href="#DejaVuSans-34" x="63.623047"/>
       <use xlink:href="#DejaVuSans-30" x="127.246094"/>
       <use xlink:href="#DejaVuSans-34" x="190.869141"/>
      </g>
     </g>
    </g>
    <g id="xtick_28">
     <g id="text_28">
      <!-- 5789 -->
      <g transform="translate(377.913239 337.952774) rotate(-45) scale(0.1 -0.1)">
       <use xlink:href="#DejaVuSans-35"/>
       <use xlink:href="#DejaVuSans-37" x="63.623047"/>
       <use xlink:href="#DejaVuSans-38" x="127.246094"/>
       <use xlink:href="#DejaVuSans-39" x="190.869141"/>
      </g>
     </g>
    </g>
    <g id="xtick_29">
     <g id="text_29">
      <!-- 1475 -->
      <g transform="translate(389.817239 337.952774) rotate(-45) scale(0.1 -0.1)">
       <use xlink:href="#DejaVuSans-31"/>
       <use xlink:href="#DejaVuSans-34" x="63.623047"/>
       <use xlink:href="#DejaVuSans-37" x="127.246094"/>
       <use xlink:href="#DejaVuSans-35" x="190.869141"/>
      </g>
     </g>
    </g>
    <g id="xtick_30">
     <g id="text_30">
      <!-- (6322) -->
      <g transform="translate(398.962418 343.470417) rotate(-45) scale(0.1 -0.1)">
       <use xlink:href="#DejaVuSans-28"/>
       <use xlink:href="#DejaVuSans-36" x="39.013672"/>
       <use xlink:href="#DejaVuSans-33" x="102.636719"/>
       <use xlink:href="#DejaVuSans-32" x="166.259766"/>
       <use xlink:href="#DejaVuSans-32" x="229.882812"/>
       <use xlink:href="#DejaVuSans-29" x="293.505859"/>
      </g>
     </g>
    </g>
   </g>
   <g id="matplotlib.axis_2">
    <g id="ytick_1">
     <g id="line2d_1">
      <defs>
       <path id="m8e1bbae065" d="M 0 0 
L -3.5 0 
" style="stroke: #000000; stroke-width: 0.8"/>
      </defs>
      <g>
       <use xlink:href="#m8e1bbae065" x="57.6" y="307.584" style="stroke: #000000; stroke-width: 0.8"/>
      </g>
     </g>
     <g id="text_31">
      <!-- 0.0 -->
      <g transform="translate(34.696875 311.383219) scale(0.1 -0.1)">
       <defs>
        <path id="DejaVuSans-2e" d="M 684 794 
L 1344 794 
L 1344 0 
L 684 0 
L 684 794 
z
" transform="scale(0.015625)"/>
       </defs>
       <use xlink:href="#DejaVuSans-30"/>
       <use xlink:href="#DejaVuSans-2e" x="63.623047"/>
       <use xlink:href="#DejaVuSans-30" x="95.410156"/>
      </g>
     </g>
    </g>
    <g id="ytick_2">
     <g id="line2d_2">
      <g>
       <use xlink:href="#m8e1bbae065" x="57.6" y="271.885198" style="stroke: #000000; stroke-width: 0.8"/>
      </g>
     </g>
     <g id="text_32">
      <!-- 0.2 -->
      <g transform="translate(34.696875 275.684417) scale(0.1 -0.1)">
       <use xlink:href="#DejaVuSans-30"/>
       <use xlink:href="#DejaVuSans-2e" x="63.623047"/>
       <use xlink:href="#DejaVuSans-32" x="95.410156"/>
      </g>
     </g>
    </g>
    <g id="ytick_3">
     <g id="line2d_3">
      <g>
       <use xlink:href="#m8e1bbae065" x="57.6" y="236.186396" style="stroke: #000000; stroke-width: 0.8"/>
      </g>
     </g>
     <g id="text_33">
      <!-- 0.4 -->
      <g transform="translate(34.696875 239.985615) scale(0.1 -0.1)">
       <use xlink:href="#DejaVuSans-30"/>
       <use xlink:href="#DejaVuSans-2e" x="63.623047"/>
       <use xlink:href="#DejaVuSans-34" x="95.410156"/>
      </g>
     </g>
    </g>
    <g id="ytick_4">
     <g id="line2d_4">
      <g>
       <use xlink:href="#m8e1bbae065" x="57.6" y="200.487594" style="stroke: #000000; stroke-width: 0.8"/>
      </g>
     </g>
     <g id="text_34">
      <!-- 0.6 -->
      <g transform="translate(34.696875 204.286813) scale(0.1 -0.1)">
       <use xlink:href="#DejaVuSans-30"/>
       <use xlink:href="#DejaVuSans-2e" x="63.623047"/>
       <use xlink:href="#DejaVuSans-36" x="95.410156"/>
      </g>
     </g>
    </g>
    <g id="ytick_5">
     <g id="line2d_5">
      <g>
       <use xlink:href="#m8e1bbae065" x="57.6" y="164.788792" style="stroke: #000000; stroke-width: 0.8"/>
      </g>
     </g>
     <g id="text_35">
      <!-- 0.8 -->
      <g transform="translate(34.696875 168.588011) scale(0.1 -0.1)">
       <use xlink:href="#DejaVuSans-30"/>
       <use xlink:href="#DejaVuSans-2e" x="63.623047"/>
       <use xlink:href="#DejaVuSans-38" x="95.410156"/>
      </g>
     </g>
    </g>
    <g id="ytick_6">
     <g id="line2d_6">
      <g>
       <use xlink:href="#m8e1bbae065" x="57.6" y="129.08999" style="stroke: #000000; stroke-width: 0.8"/>
      </g>
     </g>
     <g id="text_36">
      <!-- 1.0 -->
      <g transform="translate(34.696875 132.889208) scale(0.1 -0.1)">
       <use xlink:href="#DejaVuSans-31"/>
       <use xlink:href="#DejaVuSans-2e" x="63.623047"/>
       <use xlink:href="#DejaVuSans-30" x="95.410156"/>
      </g>
     </g>
    </g>
    <g id="ytick_7">
     <g id="line2d_7">
      <g>
       <use xlink:href="#m8e1bbae065" x="57.6" y="93.391188" style="stroke: #000000; stroke-width: 0.8"/>
      </g>
     </g>
     <g id="text_37">
      <!-- 1.2 -->
      <g transform="translate(34.696875 97.190406) scale(0.1 -0.1)">
       <use xlink:href="#DejaVuSans-31"/>
       <use xlink:href="#DejaVuSans-2e" x="63.623047"/>
       <use xlink:href="#DejaVuSans-32" x="95.410156"/>
      </g>
     </g>
    </g>
    <g id="ytick_8">
     <g id="line2d_8">
      <g>
       <use xlink:href="#m8e1bbae065" x="57.6" y="57.692386" style="stroke: #000000; stroke-width: 0.8"/>
      </g>
     </g>
     <g id="text_38">
      <!-- 1.4 -->
      <g transform="translate(34.696875 61.491604) scale(0.1 -0.1)">
       <use xlink:href="#DejaVuSans-31"/>
       <use xlink:href="#DejaVuSans-2e" x="63.623047"/>
       <use xlink:href="#DejaVuSans-34" x="95.410156"/>
      </g>
     </g>
    </g>
   </g>
   <g id="LineCollection_1">
    <path d="M 206.4 307.584 
L 206.4 165.694767 
L 218.304 165.694767 
L 218.304 307.584 
" clip-path="url(#p2d2f0d08b6)" style="fill: none; stroke: #ff7f0e; stroke-width: 1.5"/>
    <path d="M 194.496 307.584 
L 194.496 165.321255 
L 212.352 165.321255 
L 212.352 165.694767 
" clip-path="url(#p2d2f0d08b6)" style="fill: none; stroke: #ff7f0e; stroke-width: 1.5"/>
    <path d="M 301.632 307.584 
L 301.632 165.405276 
L 313.536 165.405276 
L 313.536 307.584 
" clip-path="url(#p2d2f0d08b6)" style="fill: none; stroke: #ff7f0e; stroke-width: 1.5"/>
    <path d="M 289.728 307.584 
L 289.728 163.320682 
L 307.584 163.320682 
L 307.584 165.405276 
" clip-path="url(#p2d2f0d08b6)" style="fill: none; stroke: #ff7f0e; stroke-width: 1.5"/>
    <path d="M 396.864 307.584 
L 396.864 165.108269 
L 408.768 165.108269 
L 408.768 307.584 
" clip-path="url(#p2d2f0d08b6)" style="fill: none; stroke: #ff7f0e; stroke-width: 1.5"/>
    <path d="M 384.96 307.584 
L 384.96 164.886167 
L 402.816 164.886167 
L 402.816 165.108269 
" clip-path="url(#p2d2f0d08b6)" style="fill: none; stroke: #ff7f0e; stroke-width: 1.5"/>
    <path d="M 373.056 307.584 
L 373.056 164.350688 
L 393.888 164.350688 
L 393.888 164.886167 
" clip-path="url(#p2d2f0d08b6)" style="fill: none; stroke: #ff7f0e; stroke-width: 1.5"/>
    <path d="M 361.152 307.584 
L 361.152 164.013481 
L 383.472 164.013481 
L 383.472 164.350688 
" clip-path="url(#p2d2f0d08b6)" style="fill: none; stroke: #ff7f0e; stroke-width: 1.5"/>
    <path d="M 349.248 307.584 
L 349.248 163.595027 
L 372.312 163.595027 
L 372.312 164.013481 
" clip-path="url(#p2d2f0d08b6)" style="fill: none; stroke: #ff7f0e; stroke-width: 1.5"/>
    <path d="M 337.344 307.584 
L 337.344 163.18396 
L 360.78 163.18396 
L 360.78 163.595027 
" clip-path="url(#p2d2f0d08b6)" style="fill: none; stroke: #ff7f0e; stroke-width: 1.5"/>
    <path d="M 325.44 307.584 
L 325.44 163.165453 
L 349.062 163.165453 
L 349.062 163.18396 
" clip-path="url(#p2d2f0d08b6)" style="fill: none; stroke: #ff7f0e; stroke-width: 1.5"/>
    <path d="M 298.656 163.320682 
L 298.656 162.613653 
L 337.251 162.613653 
L 337.251 163.165453 
" clip-path="url(#p2d2f0d08b6)" style="fill: none; stroke: #ff7f0e; stroke-width: 1.5"/>
    <path d="M 277.824 307.584 
L 277.824 161.415893 
L 317.9535 161.415893 
L 317.9535 162.613653 
" clip-path="url(#p2d2f0d08b6)" style="fill: none; stroke: #ff7f0e; stroke-width: 1.5"/>
    <path d="M 265.92 307.584 
L 265.92 160.956897 
L 297.88875 160.956897 
L 297.88875 161.415893 
" clip-path="url(#p2d2f0d08b6)" style="fill: none; stroke: #ff7f0e; stroke-width: 1.5"/>
    <path d="M 254.016 307.584 
L 254.016 160.55573 
L 281.904375 160.55573 
L 281.904375 160.956897 
" clip-path="url(#p2d2f0d08b6)" style="fill: none; stroke: #ff7f0e; stroke-width: 1.5"/>
    <path d="M 242.112 307.584 
L 242.112 160.09657 
L 267.960188 160.09657 
L 267.960188 160.55573 
" clip-path="url(#p2d2f0d08b6)" style="fill: none; stroke: #ff7f0e; stroke-width: 1.5"/>
    <path d="M 230.208 307.584 
L 230.208 158.501165 
L 255.036094 158.501165 
L 255.036094 160.09657 
" clip-path="url(#p2d2f0d08b6)" style="fill: none; stroke: #ff7f0e; stroke-width: 1.5"/>
    <path d="M 203.424 165.321255 
L 203.424 156.459063 
L 242.622047 156.459063 
L 242.622047 158.501165 
" clip-path="url(#p2d2f0d08b6)" style="fill: none; stroke: #ff7f0e; stroke-width: 1.5"/>
    <path d="M 182.592 307.584 
L 182.592 155.680888 
L 223.023023 155.680888 
L 223.023023 156.459063 
" clip-path="url(#p2d2f0d08b6)" style="fill: none; stroke: #ff7f0e; stroke-width: 1.5"/>
    <path d="M 170.688 307.584 
L 170.688 153.525492 
L 202.807512 153.525492 
L 202.807512 155.680888 
" clip-path="url(#p2d2f0d08b6)" style="fill: none; stroke: #ff7f0e; stroke-width: 1.5"/>
    <path d="M 158.784 307.584 
L 158.784 152.405865 
L 186.747756 152.405865 
L 186.747756 153.525492 
" clip-path="url(#p2d2f0d08b6)" style="fill: none; stroke: #ff7f0e; stroke-width: 1.5"/>
    <path d="M 146.88 307.584 
L 146.88 151.840993 
L 172.765878 151.840993 
L 172.765878 152.405865 
" clip-path="url(#p2d2f0d08b6)" style="fill: none; stroke: #ff7f0e; stroke-width: 1.5"/>
    <path d="M 134.976 307.584 
L 134.976 151.484413 
L 159.822939 151.484413 
L 159.822939 151.840993 
" clip-path="url(#p2d2f0d08b6)" style="fill: none; stroke: #ff7f0e; stroke-width: 1.5"/>
    <path d="M 123.072 307.584 
L 123.072 147.064462 
L 147.399469 147.064462 
L 147.399469 151.484413 
" clip-path="url(#p2d2f0d08b6)" style="fill: none; stroke: #ff7f0e; stroke-width: 1.5"/>
    <path d="M 111.168 307.584 
L 111.168 143.946215 
L 135.235735 143.946215 
L 135.235735 147.064462 
" clip-path="url(#p2d2f0d08b6)" style="fill: none; stroke: #ff7f0e; stroke-width: 1.5"/>
   </g>
   <g id="LineCollection_2">
    <path d="M 99.264 307.584 
L 99.264 123.012418 
L 123.201867 123.012418 
L 123.201867 143.946215 
" clip-path="url(#p2d2f0d08b6)" style="fill: none; stroke: #1f77b4; stroke-width: 1.5"/>
    <path d="M 87.36 307.584 
L 87.36 102.259555 
L 111.232934 102.259555 
L 111.232934 123.012418 
" clip-path="url(#p2d2f0d08b6)" style="fill: none; stroke: #1f77b4; stroke-width: 1.5"/>
    <path d="M 75.456 307.584 
L 75.456 93.475249 
L 99.296467 93.475249 
L 99.296467 102.259555 
" clip-path="url(#p2d2f0d08b6)" style="fill: none; stroke: #1f77b4; stroke-width: 1.5"/>
    <path d="M 63.552 307.584 
L 63.552 54.144 
L 87.376233 54.144 
L 87.376233 93.475249 
" clip-path="url(#p2d2f0d08b6)" style="fill: none; stroke: #1f77b4; stroke-width: 1.5"/>
   </g>
   <g id="patch_3">
    <path d="M 57.6 307.584 
L 57.6 41.472 
" style="fill: none; stroke: #000000; stroke-width: 0.8; stroke-linejoin: miter; stroke-linecap: square"/>
   </g>
   <g id="patch_4">
    <path d="M 414.72 307.584 
L 414.72 41.472 
" style="fill: none; stroke: #000000; stroke-width: 0.8; stroke-linejoin: miter; stroke-linecap: square"/>
   </g>
   <g id="patch_5">
    <path d="M 57.6 307.584 
L 414.72 307.584 
" style="fill: none; stroke: #000000; stroke-width: 0.8; stroke-linejoin: miter; stroke-linecap: square"/>
   </g>
   <g id="patch_6">
    <path d="M 57.6 41.472 
L 414.72 41.472 
" style="fill: none; stroke: #000000; stroke-width: 0.8; stroke-linejoin: miter; stroke-linecap: square"/>
   </g>
  </g>
 </g>
 <defs>
  <clipPath id="p2d2f0d08b6">
   <rect x="57.6" y="41.472" width="357.12" height="266.112"/>
  </clipPath>
 </defs>
</svg>
